<?xml version="1.0" encoding="UTF-8"?>
<svg width="60px" height="60px" viewBox="0 0 60 60" version="1.1" xmlns="http://www.w3.org/2000/svg" xmlns:xlink="http://www.w3.org/1999/xlink">
    <!-- Generator: Sketch 40.3 (33839) - http://www.bohemiancoding.com/sketch -->
    <title>Untitled</title>
    <desc>Created with Sketch.</desc>
    <defs></defs>
    <g id="Page-1" stroke="none" stroke-width="1" fill="none" fill-rule="evenodd">
        <g id="angry">
            <circle id="Oval" fill="#FF0043" cx="30" cy="30" r="30"></circle>
            <path d="M38.988,47.665 C33.195,42.865 26.769,42.894 21.011,47.665 C20.318,48.238 19.693,47.244 20.162,46.326 C21.917,42.891 25.461,39.834 29.999,39.834 C34.537,39.834 38.08,42.892 39.835,46.326 C40.307,47.244 39.682,48.238 38.988,47.665 L38.988,47.665 Z" id="Shape" fill="#302424"></path>
            <path d="M8.166,22.935 C6.618,27.663 8.812,32.91 13.436,35.063 C18.051,37.217 23.475,35.53 26.104,31.317 L19.209,23.596 L8.166,22.935 L8.166,22.935 Z" id="Shape" fill="#FFFFFF"></path>
            <path d="M12.24,23.775 C11.3448239,25.6633579 11.5298201,27.8865536 12.7247912,29.6009864 C13.9197623,31.3154193 15.9415724,32.2583435 18.0230378,32.0719626 C20.1045032,31.8855817 21.9266281,30.5984597 22.798,28.699 C23.66,26.848 13.104,21.924 12.24,23.775 L12.24,23.775 Z" id="Shape" fill="#302424"></path>
            <path d="M8.166,22.936 C9.752,21.901 11.64,21.473 13.553,21.481 C15.473,21.499 17.393,21.95 19.143,22.76 C20.887,23.561 22.489,24.74 23.739,26.201 C24.979,27.662 25.901,29.431 26.104,31.316 C24.774,29.986 23.499,28.886 22.133,27.929 C20.792756,26.9866881 19.3703397,26.1670416 17.883,25.48 C16.3951033,24.7887698 14.8486779,24.2312401 13.262,23.814 C11.647,23.383 10.037,23.117 8.166,22.936 L8.166,22.936 Z" id="Shape" fill="#302424"></path>
            <g id="Group" transform="translate(33.000000, 21.000000)">
                <path d="M18.834,1.935 C20.381,6.663 18.188,11.91 13.564,14.063 C8.949,16.217 3.525,14.53 0.896,10.317 L7.791,2.596 L18.834,1.935 L18.834,1.935 Z" id="Shape" fill="#FFFFFF"></path>
                <path d="M14.76,2.775 C15.6551761,4.66335793 15.4701799,6.88655355 14.2752088,8.60098644 C13.0802377,10.3154193 11.0584276,11.2583435 8.97696217,11.0719626 C6.89549679,10.8855817 5.07337189,9.59845966 4.202,7.699 C3.34,5.848 13.896,0.924 14.76,2.775 L14.76,2.775 Z" id="Shape" fill="#302424"></path>
                <path d="M18.834,1.936 C17.248,0.901 15.361,0.473 13.447,0.481 C11.527,0.499 9.607,0.95 7.857,1.76 C6.113,2.561 4.511,3.74 3.261,5.201 C2.021,6.662 1.099,8.431 0.896,10.316 C2.226,8.986 3.501,7.886 4.867,6.929 C6.20724397,5.98668812 7.6296603,5.16704162 9.117,4.48 C10.6048967,3.78876977 12.1513221,3.23124007 13.738,2.814 C15.354,2.383 16.963,2.117 18.834,1.936 L18.834,1.936 Z" id="Shape" fill="#302424"></path>
            </g>
        </g>
    </g>
</svg>