<?xml version="1.0" encoding="UTF-8"?>
<svg width="60px" height="60px" viewBox="0 0 60 60" version="1.1" xmlns="http://www.w3.org/2000/svg" xmlns:xlink="http://www.w3.org/1999/xlink">
    <!-- Generator: Sketch 40.3 (33839) - http://www.bohemiancoding.com/sketch -->
    <title>Untitled 2</title>
    <desc>Created with Sketch.</desc>
    <defs></defs>
    <g id="Page-1" stroke="none" stroke-width="1" fill="none" fill-rule="evenodd">
        <g id="fear">
            <circle id="Oval" fill="#FFD112" cx="30" cy="30" r="30"></circle>
            <path d="M20.578,16.191 C17.3408616,18.9235369 13.054697,20.0719636 8.885,19.324 C8.307,19.211 7.797,21.345 8.5,21.48 C13.311223,22.3432792 18.2569239,21.0181452 21.992,17.865 C22.533,17.396 21.021,15.805 20.578,16.191 L20.578,16.191 Z M51.113,19.172 C46.945,19.92 42.658,18.772 39.422,16.039 C38.979,15.65 37.467,17.244 38.01,17.713 C41.7449433,20.8663993 46.6907649,22.1915657 51.502,21.328 C52.205,21.193 51.693,19.059 51.113,19.172 L51.113,19.172 Z" id="Shape" fill="#917524"></path>
            <path d="M44.566,40.396 C44.031,39.767 43.033,39.628 42.346,40.087 L38.1,42.928 C37.414,43.387 36.341,43.322 35.716,42.782 L31.134,38.835 C30.509,38.297 29.487,38.298 28.862,38.836 L24.299,42.774 C23.674,43.312 22.602,43.378 21.916,42.92 L17.653,40.073 C16.967,39.615 15.968,39.755 15.434,40.383 L10.971,45.634 C10.437,46.262 10.59,46.45 11.313,46.052 L15.088,43.97 C15.811,43.572 16.885,43.717 17.475,44.293 L22.103,48.809 C22.693,49.385 23.712,49.447 24.367,48.945 L28.832,45.525 C29.486,45.023 30.559,45.023 31.214,45.525 L35.657,48.927 C36.312,49.429 37.331,49.367 37.922,48.79 L42.522,44.296 C43.112,43.719 44.185,43.573 44.908,43.971 L48.687,46.053 C49.41,46.45 49.563,46.263 49.028,45.634 L44.566,40.396 L44.566,40.396 Z" id="Shape" fill="#664E27"></path>
            <g id="Group" transform="translate(9.000000, 24.000000)" fill="#664E27">
                <path d="M40.67,2.095 C40.8926016,2.21003343 41.0170144,2.45424813 40.9792031,2.70194645 C40.9413917,2.94964476 40.7497837,3.14561863 40.503,3.189 C37.81,3.592 34.956,4.05 32.247,5.55 C36.268,6.217 39.497,8.279 41.249,10.379 C41.645,10.853 41.149,11.495 40.707,11.334 C35.935,9.602 31.028,8.664 24.86,9.298 C24.374,9.348 23.957,9.067 24.059,8.62 C25.706,1.416 34.972,-1.303 40.67,2.095 L40.67,2.095 Z M1.33,2.095 C1.10739842,2.21003343 0.982985562,2.45424813 1.02079691,2.70194645 C1.05860827,2.94964476 1.25021627,3.14561863 1.497,3.189 C4.19,3.592 7.045,4.05 9.753,5.55 C5.732,6.217 2.503,8.279 0.751,10.379 C0.355,10.853 0.851,11.495 1.293,11.334 C6.065,9.602 10.972,8.664 17.14,9.298 C17.626,9.348 18.043,9.067 17.941,8.62 C16.294,1.416 7.028,-1.303 1.33,2.095 L1.33,2.095 Z" id="Shape"></path>
            </g>
        </g>
    </g>
</svg>