<?xml version="1.0" encoding="UTF-8"?>
<svg width="60px" height="60px" viewBox="0 0 60 60" version="1.1" xmlns="http://www.w3.org/2000/svg" xmlns:xlink="http://www.w3.org/1999/xlink">
    <!-- Generator: Sketch 40.3 (33839) - http://www.bohemiancoding.com/sketch -->
    <title>happy</title>
    <desc>Created with Sketch.</desc>
    <defs></defs>
    <g id="Page-1" stroke="none" stroke-width="1" fill="none" fill-rule="evenodd">
        <g id="happy">
            <circle id="Oval" fill="#FFD112" cx="30" cy="30" r="30"></circle>
            <g id="Group" transform="translate(9.000000, 15.000000)" fill="#664E27">
                <path d="M40.67,2.376 C40.8926016,2.49103343 41.0170144,2.73524813 40.9792031,2.98294645 C40.9413917,3.23064476 40.7497837,3.42661863 40.503,3.47 C37.81,3.873 34.955,4.331 32.247,5.831 C36.268,6.498 39.497,8.56 41.249,10.66 C41.645,11.134 41.15,11.776 40.707,11.615 C35.935,9.883 31.028,8.945 24.86,9.579 C24.375,9.629 23.957,9.348 24.059,8.901 C25.706,1.697 34.972,-1.021 40.67,2.376 L40.67,2.376 Z M1.33,2.376 C1.10739842,2.49103343 0.982985562,2.73524813 1.02079691,2.98294645 C1.05860827,3.23064476 1.25021627,3.42661863 1.497,3.47 C4.19,3.873 7.045,4.331 9.753,5.831 C5.732,6.498 2.503,8.56 0.751,10.66 C0.355,11.134 0.851,11.776 1.293,11.615 C6.065,9.883 10.972,8.945 17.14,9.579 C17.626,9.629 18.043,9.348 17.941,8.901 C16.294,1.697 7.028,-1.021 1.33,2.376 L1.33,2.376 Z" id="Shape"></path>
            </g>
            <path d="M47.696,32.436 C47.29,31.916 46.569,32.006 45.783,32.006 L14.216,32.006 C13.431,32.006 12.71,31.916 12.304,32.436 C8.394,37.422 12.994,52 30,52 C47.007,52 51.606,37.422 47.696,32.436 L47.696,32.436 Z" id="Shape" fill="#664E27"></path>
            <path d="M31.842,39.741 C31.264,39.727 30.373,40.267 30.699,41.698 C30.862,42.421 31.888,43.295 31.888,44.461 C31.888,46.833 28.111,46.833 28.111,44.461 C28.111,43.295 29.137,42.421 29.302,41.698 C29.628,40.267 28.737,39.727 28.157,39.741 C26.586,39.782 24.008,41.477 24.008,44.345 C24.008,47.569 26.692,50.181 29.999,50.181 C33.306,50.181 35.99,47.569 35.99,44.345 C35.991,41.478 33.412,39.782 31.842,39.741 L31.842,39.741 Z" id="Shape" fill="#4C3526"></path>
            <path d="M22.287,48.665 C24.517,49.621 27.088,50.182 30.001,50.182 C32.914,50.182 35.484,49.621 37.713,48.665 C35.564,47.633 33.003,47.002 30.001,47.002 C26.999,47.002 24.44,47.633 22.287,48.665 L22.287,48.665 Z" id="Shape" fill="#FF717F"></path>
            <path d="M44.953,34 L15.047,34 C12.994,34 12.994,38 14.994,38 L45.006,38 C47.007,38 47.007,34 44.953,34 L44.953,34 Z" id="Shape" fill="#FFFFFF"></path>
        </g>
    </g>
</svg>