<?xml version="1.0" encoding="UTF-8"?>
<svg width="60px" height="60px" viewBox="0 0 60 60" version="1.1" xmlns="http://www.w3.org/2000/svg" xmlns:xlink="http://www.w3.org/1999/xlink">
    <!-- Generator: Sketch 40.3 (33839) - http://www.bohemiancoding.com/sketch -->
    <title>surprised</title>
    <desc>Created with Sketch.</desc>
    <defs></defs>
    <g id="Page-1" stroke="none" stroke-width="1" fill="none" fill-rule="evenodd">
        <g id="surprised">
            <circle id="Oval" fill="#FFD112" cx="30" cy="30" r="30"></circle>
            <circle id="Oval" fill="#FFFFFF" cx="17.5" cy="22.785" r="10"></circle>
            <circle id="Oval" fill="#664E27" cx="17.5" cy="22.785" r="3.5"></circle>
            <circle id="Oval" fill="#FFFFFF" cx="42.5" cy="22.785" r="10"></circle>
            <circle id="Oval" fill="#664E27" cx="42.5" cy="22.785" r="3.5"></circle>
            <g id="Group" transform="translate(14.000000, 36.000000)">
                <path d="M31.676,6 C29.961,2.407 25.795,0 16,0 C6.207,0 2.041,2.407 0.326,6 C-0.592,7.92 0.719,11 0.719,11 C2.356,14.883 2.127,16 16.002,16 C29.859,16 29.645,14.883 31.281,11 C31.281,11 32.59,7.92 31.676,6 L31.676,6 Z" id="Shape" fill="#664E27"></path>
                <path d="M27.363,4.965 C27.4459004,4.67966111 27.3621131,4.37192619 27.146,4.168 C27.146,4.168 24.601,2 16,2 C7.399,2 4.854,4.168 4.854,4.168 C4.63788691,4.37192619 4.55409961,4.67966111 4.637,4.965 L4.832,5.528 C4.922,5.788 5.221,6.001 5.496,6.001 L26.504,6.001 C26.7988377,5.98689607 27.0583317,5.80204571 27.168,5.528 L27.363,4.965 L27.363,4.965 Z" id="Shape" fill="#FFFFFF"></path>
            </g>
            <g id="Group" transform="translate(10.000000, 5.000000)" fill="#917524">
                <path d="M38.203,6.455 C34.9658616,3.72246311 30.679697,2.57403638 26.51,3.322 C25.932,3.435 25.422,1.301 26.125,1.166 C30.936223,0.302720787 35.8819239,1.62785483 39.617,4.781 C40.158,5.25 38.646,6.842 38.203,6.455 L38.203,6.455 Z M13.488,3.172 C9.32,2.424 5.033,3.572 1.795,6.305 C1.352,6.694 -0.158,5.1 0.383,4.631 C4.11820886,1.4781089 9.06378904,0.153007184 13.875,1.016 C14.578,1.15 14.066,3.285 13.488,3.172 L13.488,3.172 Z" id="Shape"></path>
            </g>
        </g>
    </g>
</svg>